# xmcd
#
# Track frame offsets:
#	183
#	13525
#	35413
#	48050
#	63558
#	76005
#	86473
#	99013
#	109898
#	124243
#	145935
#	159975
#
# Disc length: 2327 seconds
#
# Revision: 1
# Processed by: cddbd v1.4PL0 Copyright (c) Steve Scherf et al.
# Submitted via: audiograbber 1.80
#
DISCID=8709150c
DTITLE=Various Artist - Der wilde, wilde Westen
DYEAR=1900
DGENRE=
TTITLE0=Truck Stop - Arizona, Arizona
TTITLE1=Tom Astor - Kameraden der Straße
TTITLE2=Jonny Hill - 500 Meilen von zu Haus
TTITLE3=Truck Stop - Jeden Tag in einer anderen Stadt
TTITLE4=Tom Astor - Hier riechts nach Freiheit
TTITLE5=Freddy Quinn - Die schönste Frau von Texas
TTITLE6=Truck Stop - Der wilde, wilde Westen
TTITLE7=Tom Astor and Larry Schuba - Zwei Trucker wie wir
TTITLE8=Gunter Gabriel and Manfred Krug - Gefangene der Straße
TTITLE9=Jonny Hill - Ruf Teddybär eins-vier
TTITLE10=Peter Held - Der Spieler
TTITLE11=Truck Stop - Lousiana LAdies
EXTD=
EXTT0=
EXTT1=
EXTT2=
EXTT3=
EXTT4=
EXTT5=
EXTT6=
EXTT7=
EXTT8=
EXTT9=
EXTT10=
EXTT11=
PLAYORDER=
